{
  "accessors": [
    {
      "bufferView": 1,
      "componentType": 5126,
      "count": 10182,
      "max": [
        39.808998107910156,
        -55.99620056152344,
        35.73500061035156
      ],
      "min": [
        -40.972999572753906,
        -116.02400207519531,
        -38.30799865722656
      ],
      "type": "VEC3"
    },
    {
      "bufferView": 1,
      "byteOffset": 122184,
      "componentType": 5126,
      "count": 10182,
      "max": [
        1.0,
        1.0,
        1.0
      ],
      "min": [
        -1.0,
        -1.0,
        -1.0
      ],
      "type": "VEC3"
    },
    {
      "bufferView": 0,
      "componentType": 5125,
      "count": 32172,
      "type": "SCALAR"
    },
    {
      "bufferView": 1,
      "byteOffset": 244368,
      "componentType": 5126,
      "count": 65532,
      "max": [
        60.8838996887207,
        -12.33590030670166,
        62.17390060424805
      ],
      "min": [
        -64.88400268554688,
        -134.07400512695313,
        -62.8838996887207
      ],
      "type": "VEC3"
    },
    {
      "bufferView": 1,
      "byteOffset": 1030752,
      "componentType": 5126,
      "count": 65532,
      "max": [
        1.0,
        1.0,
        1.0
      ],
      "min": [
        -1.0,
        -1.0,
        -1.0
      ],
      "type": "VEC3"
    },
    {
      "bufferView": 0,
      "byteOffset": 128688,
      "componentType": 5125,
      "count": 295884,
      "type": "SCALAR"
    },
    {
      "bufferView": 1,
      "byteOffset": 1817136,
      "componentType": 5126,
      "count": 27941,
      "max": [
        60.17390060424805,
        -12.33590030670166,
        62.8838996887207
      ],
      "min": [
        -64.88079833984375,
        -119.05699920654297,
        -62.742000579833984
      ],
      "type": "VEC3"
    },
    {
      "bufferView": 1,
      "byteOffset": 2152428,
      "componentType": 5126,
      "count": 27941,
      "max": [
        1.0,
        1.0,
        1.0
      ],
      "min": [
        -1.0,
        -1.0,
        -1.0
      ],
      "type": "VEC3"
    },
    {
      "bufferView": 0,
      "byteOffset": 1312224,
      "componentType": 5125,
      "count": 97755,
      "type": "SCALAR"
    },
    {
      "bufferView": 1,
      "byteOffset": 2487720,
      "componentType": 5126,
      "count": 51,
      "max": [
        5.433300018310547,
        -108.91999816894531,
        7.926400184631348
      ],
      "min": [
        -8.142800331115723,
        -108.91999816894531,
        -5.649799823760986
      ],
      "type": "VEC3"
    },
    {
      "bufferView": 1,
      "byteOffset": 2488332,
      "componentType": 5126,
      "count": 51,
      "max": [
        0.0,
        -0.9999999403953552,
        0.0
      ],
      "min": [
        0.0,
        -1.0,
        0.0
      ],
      "type": "VEC3"
    },
    {
      "bufferView": 0,
      "byteOffset": 1703244,
      "componentType": 5125,
      "count": 147,
      "type": "SCALAR"
    },
    {
      "bufferView": 1,
      "byteOffset": 2488944,
      "componentType": 5126,
      "count": 65532,
      "max": [
        75.0,
        -0.0,
        77.0
      ],
      "min": [
        -72.4126968383789,
        -61.50149917602539,
        -75.5
      ],
      "type": "VEC3"
    },
    {
      "bufferView": 1,
      "byteOffset": 3275328,
      "componentType": 5126,
      "count": 65532,
      "max": [
        1.0,
        1.0,
        1.0
      ],
      "min": [
        -1.0,
        -1.0,
        -1.0
      ],
      "type": "VEC3"
    },
    {
      "bufferView": 0,
      "byteOffset": 1703832,
      "componentType": 5125,
      "count": 280830,
      "type": "SCALAR"
    },
    {
      "bufferView": 1,
      "byteOffset": 4061712,
      "componentType": 5126,
      "count": 45756,
      "max": [
        73.5,
        -0.0,
        77.0
      ],
      "min": [
        -79.0,
        -61.46969985961914,
        -77.0
      ],
      "type": "VEC3"
    },
    {
      "bufferView": 1,
      "byteOffset": 4610784,
      "componentType": 5126,
      "count": 45756,
      "max": [
        1.0,
        1.0,
        1.0
      ],
      "min": [
        -1.0,
        -1.0,
        -1.0
      ],
      "type": "VEC3"
    },
    {
      "bufferView": 0,
      "byteOffset": 2827152,
      "componentType": 5125,
      "count": 175059,
      "type": "SCALAR"
    },
    {
      "bufferView": 1,
      "byteOffset": 5159856,
      "componentType": 5126,
      "count": 2980,
      "max": [
        -33.073001861572266,
        -41.43000030517578,
        13.5
      ],
      "min": [
        -41.80659866333008,
        -55.49800109863281,
        -13.031999588012695
      ],
      "type": "VEC3"
    },
    {
      "bufferView": 1,
      "byteOffset": 5195616,
      "componentType": 5126,
      "count": 2980,
      "max": [
        1.0,
        1.0,
        1.0
      ],
      "min": [
        -1.0,
        -1.0,
        -1.0
      ],
      "type": "VEC3"
    },
    {
      "bufferView": 0,
      "byteOffset": 3527388,
      "componentType": 5125,
      "count": 9765,
      "type": "SCALAR"
    },
    {
      "bufferView": 1,
      "byteOffset": 5231376,
      "componentType": 5126,
      "count": 159,
      "max": [
        -28.308000564575195,
        -74.22799682617188,
        -16.497400283813477
      ],
      "min": [
        -30.83449935913086,
        -81.27999877929688,
        -19.02400016784668
      ],
      "type": "VEC3"
    },
    {
      "bufferView": 1,
      "byteOffset": 5233284,
      "componentType": 5126,
      "count": 159,
      "max": [
        0.7067749500274658,
        1.0,
        0.7071068286895752
      ],
      "min": [
        -0.7072250843048096,
        -0.9987855553627014,
        -0.7074244022369385
      ],
      "type": "VEC3"
    },
    {
      "bufferView": 0,
      "byteOffset": 3566448,
      "componentType": 5125,
      "count": 459,
      "type": "SCALAR"
    },
    {
      "bufferView": 1,
      "byteOffset": 5235192,
      "componentType": 5126,
      "count": 12835,
      "max": [
        7.800000190734863,
        -26.690000534057617,
        13.5
      ],
      "min": [
        -41.89400100708008,
        -55.32400131225586,
        -39.0
      ],
      "type": "VEC3"
    },
    {
      "bufferView": 1,
      "byteOffset": 5389212,
      "componentType": 5126,
      "count": 12835,
      "max": [
        1.0,
        1.0,
        1.0
      ],
      "min": [
        -1.0,
        -1.0,
        -1.0
      ],
      "type": "VEC3"
    },
    {
      "bufferView": 0,
      "byteOffset": 3568284,
      "componentType": 5125,
      "count": 39531,
      "type": "SCALAR"
    },
    {
      "bufferView": 1,
      "byteOffset": 5543232,
      "componentType": 5126,
      "count": 65532,
      "max": [
        55.0,
        -22.0,
        56.99399948120117
      ],
      "min": [
        -58.904998779296875,
        -109.07499694824219,
        -57.0
      ],
      "type": "VEC3"
    },
    {
      "bufferView": 1,
      "byteOffset": 6329616,
      "componentType": 5126,
      "count": 65532,
      "max": [
        1.0,
        1.0,
        1.0
      ],
      "min": [
        -1.0,
        -1.0,
        -1.0
      ],
      "type": "VEC3"
    },
    {
      "bufferView": 0,
      "byteOffset": 3726408,
      "componentType": 5125,
      "count": 294933,
      "type": "SCALAR"
    },
    {
      "bufferView": 1,
      "byteOffset": 7116000,
      "componentType": 5126,
      "count": 27297,
      "max": [
        54.98400115966797,
        -10.0,
        57.0
      ],
      "min": [
        -59.0,
        -108.36499786376953,
        -56.38600158691406
      ],
      "type": "VEC3"
    },
    {
      "bufferView": 1,
      "byteOffset": 7443564,
      "componentType": 5126,
      "count": 27297,
      "max": [
        1.0,
        1.0,
        1.0
      ],
      "min": [
        -1.0,
        -1.0,
        -1.0
      ],
      "type": "VEC3"
    },
    {
      "bufferView": 0,
      "byteOffset": 4906140,
      "componentType": 5125,
      "count": 107133,
      "type": "SCALAR"
    },
    {
      "bufferView": 1,
      "byteOffset": 7771128,
      "componentType": 5126,
      "count": 4123,
      "max": [
        -33.073001861572266,
        -48.935001373291016,
        13.5
      ],
      "min": [
        -41.29930114746094,
        -55.49800109863281,
        2.444999933242798
      ],
      "type": "VEC3"
    },
    {
      "bufferView": 1,
      "byteOffset": 7820604,
      "componentType": 5126,
      "count": 4123,
      "max": [
        1.0,
        0.906265914440155,
        1.0
      ],
      "min": [
        -1.0,
        -1.0,
        -0.7894423007965088
      ],
      "type": "VEC3"
    },
    {
      "bufferView": 0,
      "byteOffset": 5334672,
      "componentType": 5125,
      "count": 13245,
      "type": "SCALAR"
    },
    {
      "bufferView": 1,
      "byteOffset": 7870080,
      "componentType": 5126,
      "count": 1258,
      "max": [
        -18.969999313354492,
        -61.0,
        -17.869800567626953
      ],
      "min": [
        -42.39500045776367,
        -62.12300109863281,
        -40.89500045776367
      ],
      "type": "VEC3"
    },
    {
      "bufferView": 1,
      "byteOffset": 7885176,
      "componentType": 5126,
      "count": 1258,
      "max": [
        0.831234872341156,
        1.0,
        0.7138087749481201
      ],
      "min": [
        -0.7079975605010986,
        -1.0,
        -0.7087923884391785
      ],
      "type": "VEC3"
    },
    {
      "bufferView": 0,
      "byteOffset": 5387652,
      "componentType": 5125,
      "count": 3408,
      "type": "SCALAR"
    }
  ],
  "asset": {
    "extras": {
      "author": "CMFDesign (https://sketchfab.com/CMFDesign)",
      "license": "CC-BY-4.0 (http://creativecommons.org/licenses/by/4.0/)",
      "source": "https://sketchfab.com/3d-models/apollo-11-lunar-module-d5eea68f5d464515a6fb2d2aee7ac979",
      "title": "Apollo 11 Lunar Module"
    },
    "generator": "Sketchfab-12.72.0",
    "version": "2.0"
  },
  "bufferViews": [
    {
      "buffer": 0,
      "byteLength": 5401284,
      "name": "floatBufferViews",
      "target": 34963
    },
    {
      "buffer": 0,
      "byteLength": 7900272,
      "byteOffset": 5401284,
      "byteStride": 12,
      "name": "floatBufferViews",
      "target": 34962
    }
  ],
  "buffers": [
    {
      "byteLength": 13301556,
      "uri": "scene.bin"
    }
  ],
  "materials": [
    {
      "doubleSided": true,
      "name": "color_10988977",
      "pbrMetallicRoughness": {
        "baseColorFactor": [
          0.654902,
          0.678431,
          0.694118,
          1.0
        ],
        "metallicFactor": 0.11723333880548918,
        "roughnessFactor": 0.0
      }
    },
    {
      "doubleSided": true,
      "name": "color_12568524",
      "pbrMetallicRoughness": {
        "baseColorFactor": [
          0.74902,
          0.780392,
          0.8,
          1.0
        ],
        "metallicFactor": 0.0
      }
    },
    {
      "doubleSided": true,
      "name": "color_14541540",
      "pbrMetallicRoughness": {
        "baseColorFactor": [
          0.866667,
          0.886275,
          0.894118,
          1.0
        ],
        "metallicFactor": 0.0
      }
    },
    {
      "doubleSided": true,
      "name": "color_14789940",
      "pbrMetallicRoughness": {
        "baseColorFactor": [
          0.882353,
          0.678431,
          0.203922,
          1.0
        ],
        "metallicFactor": 0.0
      }
    },
    {
      "doubleSided": true,
      "name": "color_15277357",
      "pbrMetallicRoughness": {
        "baseColorFactor": [
          0.913725,
          0.113725,
          0.176471,
          1.0
        ],
        "metallicFactor": 0.0
      }
    },
    {
      "doubleSided": true,
      "name": "color_16311991",
      "pbrMetallicRoughness": {
        "baseColorFactor": [
          0.972549,
          0.901961,
          0.717647,
          1.0
        ],
        "metallicFactor": 0.0
      }
    },
    {
      "doubleSided": true,
      "name": "color_16448250",
      "pbrMetallicRoughness": {
        "baseColorFactor": [
          0.980392,
          0.980392,
          0.980392,
          1.0
        ],
        "metallicFactor": 0.0
      }
    },
    {
      "doubleSided": true,
      "name": "color_2829873",
      "pbrMetallicRoughness": {
        "baseColorFactor": [
          0.168627,
          0.180392,
          0.192157,
          1.0
        ],
        "metallicFactor": 0.0
      }
    },
    {
      "doubleSided": true,
      "name": "color_3888547",
      "pbrMetallicRoughness": {
        "baseColorFactor": [
          0.231373,
          0.333333,
          0.639216,
          1.0
        ],
        "metallicFactor": 0.0
      }
    },
    {
      "doubleSided": true,
      "name": "color_6383466",
      "pbrMetallicRoughness": {
        "baseColorFactor": [
          0.380392,
          0.403922,
          0.415686,
          1.0
        ],
        "metallicFactor": 0.0
      }
    }
  ],
  "meshes": [
    {
      "name": "Object_0",
      "primitives": [
        {
          "attributes": {
            "NORMAL": 1,
            "POSITION": 0
          },
          "indices": 2,
          "material": 0,
          "mode": 4
        }
      ]
    },
    {
      "name": "Object_1",
      "primitives": [
        {
          "attributes": {
            "NORMAL": 4,
            "POSITION": 3
          },
          "indices": 5,
          "material": 1,
          "mode": 4
        }
      ]
    },
    {
      "name": "Object_2",
      "primitives": [
        {
          "attributes": {
            "NORMAL": 7,
            "POSITION": 6
          },
          "indices": 8,
          "material": 1,
          "mode": 4
        }
      ]
    },
    {
      "name": "Object_3",
      "primitives": [
        {
          "attributes": {
            "NORMAL": 10,
            "POSITION": 9
          },
          "indices": 11,
          "material": 2,
          "mode": 4
        }
      ]
    },
    {
      "name": "Object_4",
      "primitives": [
        {
          "attributes": {
            "NORMAL": 13,
            "POSITION": 12
          },
          "indices": 14,
          "material": 3,
          "mode": 4
        }
      ]
    },
    {
      "name": "Object_5",
      "primitives": [
        {
          "attributes": {
            "NORMAL": 16,
            "POSITION": 15
          },
          "indices": 17,
          "material": 3,
          "mode": 4
        }
      ]
    },
    {
      "name": "Object_6",
      "primitives": [
        {
          "attributes": {
            "NORMAL": 19,
            "POSITION": 18
          },
          "indices": 20,
          "material": 4,
          "mode": 4
        }
      ]
    },
    {
      "name": "Object_7",
      "primitives": [
        {
          "attributes": {
            "NORMAL": 22,
            "POSITION": 21
          },
          "indices": 23,
          "material": 5,
          "mode": 4
        }
      ]
    },
    {
      "name": "Object_8",
      "primitives": [
        {
          "attributes": {
            "NORMAL": 25,
            "POSITION": 24
          },
          "indices": 26,
          "material": 6,
          "mode": 4
        }
      ]
    },
    {
      "name": "Object_9",
      "primitives": [
        {
          "attributes": {
            "NORMAL": 28,
            "POSITION": 27
          },
          "indices": 29,
          "material": 7,
          "mode": 4
        }
      ]
    },
    {
      "name": "Object_10",
      "primitives": [
        {
          "attributes": {
            "NORMAL": 31,
            "POSITION": 30
          },
          "indices": 32,
          "material": 7,
          "mode": 4
        }
      ]
    },
    {
      "name": "Object_11",
      "primitives": [
        {
          "attributes": {
            "NORMAL": 34,
            "POSITION": 33
          },
          "indices": 35,
          "material": 8,
          "mode": 4
        }
      ]
    },
    {
      "name": "Object_12",
      "primitives": [
        {
          "attributes": {
            "NORMAL": 37,
            "POSITION": 36
          },
          "indices": 38,
          "material": 9,
          "mode": 4
        }
      ]
    }
  ],
  "nodes": [
    {
      "children": [
        1
      ],
      "matrix": [
        1.0,
        0.0,
        0.0,
        0.0,
        0.0,
        -1.0,
        -4.440892098500626e-16,
        0.0,
        0.0,
        4.440892098500626e-16,
        -1.0,
        0.0,
        0.0,
        -67.03700256347658,
        67.03700256347655,
        1.0
      ],
      "name": "Sketchfab_model"
    },
    {
      "children": [
        2,
        3,
        4,
        5,
        6,
        7,
        8,
        9,
        10,
        11,
        12,
        13,
        14
      ],
      "name": "tinker.obj.cleaner.materialmerger.gles"
    },
    {
      "mesh": 0,
      "name": "Object_2"
    },
    {
      "mesh": 1,
      "name": "Object_3"
    },
    {
      "mesh": 2,
      "name": "Object_4"
    },
    {
      "mesh": 3,
      "name": "Object_5"
    },
    {
      "mesh": 4,
      "name": "Object_6"
    },
    {
      "mesh": 5,
      "name": "Object_7"
    },
    {
      "mesh": 6,
      "name": "Object_8"
    },
    {
      "mesh": 7,
      "name": "Object_9"
    },
    {
      "mesh": 8,
      "name": "Object_10"
    },
    {
      "mesh": 9,
      "name": "Object_11"
    },
    {
      "mesh": 10,
      "name": "Object_12"
    },
    {
      "mesh": 11,
      "name": "Object_13"
    },
    {
      "mesh": 12,
      "name": "Object_14"
    }
  ],
  "scene": 0,
  "scenes": [
    {
      "name": "Sketchfab_Scene",
      "nodes": [
        0
      ]
    }
  ]
}
